<svg xmlns="http://www.w3.org/2000/svg" width="1200" height="760" viewBox="0 0 1200 760">
  <defs>
    <linearGradient id="bg" x1="0" y1="0" x2="1" y2="1">
      <stop offset="0" stop-color="#FFF7ED"/>
      <stop offset="1" stop-color="#EFF6FF"/>
    </linearGradient>
  </defs>
  <rect width="1200" height="760" rx="48" fill="url(#bg)"/>
  <g opacity="0.95">
    <rect x="120" y="120" width="420" height="250" rx="32" fill="#FFFFFF" stroke="#FED7AA" stroke-width="4"/>
    <rect x="660" y="110" width="420" height="260" rx="32" fill="#FFFFFF" stroke="#BFDBFE" stroke-width="4"/>
    <rect x="250" y="455" width="700" height="190" rx="32" fill="#FFFFFF" stroke="#DDD6FE" stroke-width="4"/>
    <circle cx="204" cy="188" r="34" fill="#FB923C"/>
    <circle cx="744" cy="188" r="34" fill="#2F6BFF"/>
    <circle cx="330" cy="520" r="34" fill="#7C3AED"/>
    <rect x="260" y="174" width="210" height="22" rx="11" fill="#CBD5E1"/>
    <rect x="720" y="250" width="280" height="22" rx="11" fill="#CBD5E1"/>
    <rect x="390" y="508" width="420" height="22" rx="11" fill="#CBD5E1"/>
    <path d="M540 250 C610 250 610 250 660 250" fill="none" stroke="#94A3B8" stroke-width="8" stroke-dasharray="18 14"/>
    <path d="M835 370 C800 430 760 455 700 490" fill="none" stroke="#94A3B8" stroke-width="8" stroke-dasharray="18 14"/>
    <path d="M370 370 C410 430 480 455 540 490" fill="none" stroke="#94A3B8" stroke-width="8" stroke-dasharray="18 14"/>
  </g>
</svg>
